<svg width="36" height="36" viewBox="0 0 36 36" fill="none" xmlns="http://www.w3.org/2000/svg">
    <circle cx="18" cy="18" r="18" fill="#7898FF"/>
    <path fill-rule="evenodd" clip-rule="evenodd" d="M20.7822 19.0586C22.5917 19.0605 24.327 19.7566 25.6064 20.9942C26.8859 22.2319 27.6056 23.9108 27.6074 25.6612V27.9297C27.6073 28.1979 27.4968 28.4549 27.3008 28.6446C27.1047 28.8342 26.8389 28.9414 26.5615 28.9414H9.44434C9.16699 28.9414 8.90121 28.8342 8.70508 28.6446C8.5091 28.4549 8.39852 28.1979 8.39844 27.9297V25.6612C8.40031 23.9109 9.11996 22.2319 10.3994 20.9942C11.6789 19.7566 13.4142 19.0605 15.2236 19.0586H20.7822ZM15.2236 21.0821C13.9688 21.0836 12.7653 21.5666 11.8779 22.4248C10.9907 23.2832 10.5347 24.4474 10.5332 25.6612V26.8233H13.1729V26.8203H22.959V26.8233H25.4727V25.6612C25.4712 24.4473 25.0152 23.2832 24.1279 22.4248C23.2406 21.5665 22.0371 21.0836 20.7822 21.0821H15.2236Z" fill="white"/>
    <path fill-rule="evenodd" clip-rule="evenodd" d="M16.9639 7.16019C17.9992 6.95589 19.0726 7.06132 20.0479 7.46195C21.023 7.86256 21.8569 8.54076 22.4434 9.41117C23.0298 10.2817 23.3427 11.3056 23.3428 12.3526C23.3415 13.756 22.7787 15.1023 21.7783 16.0948C20.7779 17.0871 19.4207 17.6451 18.0059 17.6465C16.9504 17.6466 15.9187 17.3365 15.041 16.7549C14.1633 16.1733 13.4792 15.3463 13.0752 14.3789C12.6712 13.4117 12.5647 12.3472 12.7705 11.3203C12.9764 10.2934 13.4851 9.34981 14.2314 8.60941C14.9778 7.86913 15.9287 7.36453 16.9639 7.16019ZM18.0059 9.09769C17.3572 9.09765 16.723 9.28914 16.1836 9.64652C15.6442 10.004 15.2239 10.5121 14.9756 11.1065C14.7273 11.701 14.6616 12.3552 14.7881 12.9864C14.9146 13.6175 15.2278 14.1973 15.6865 14.6524C16.1453 15.1073 16.7299 15.4175 17.3662 15.543C18.0025 15.6684 18.6624 15.6037 19.2617 15.3575C19.8609 15.1111 20.3731 14.6941 20.7334 14.1592C21.0937 13.6242 21.2861 12.995 21.2861 12.3516C21.2851 11.489 20.9391 10.6617 20.3242 10.0518C19.7093 9.44197 18.8754 9.09865 18.0059 9.09769Z" fill="white"/>
</svg>
