<svg width="16" height="16" viewBox="0 0 16 16" fill="none" xmlns="http://www.w3.org/2000/svg">
<path fill-rule="evenodd" clip-rule="evenodd" d="M15 2.554C15 2.22836 14.7497 1.96527 14.44 1.96527H11.5V0.787808C11.5 0.730468 11.4684 0.680513 11.4226 0.65625C11.4078 0.6484 11.3915 0.64324 11.3743 0.641389C11.3696 0.640884 11.3648 0.640626 11.36 0.640625C11.36 0.640625 11.36 0.640625 11.36 0.640625L10.38 0.640625C10.303 0.640625 10.24 0.706857 10.24 0.787808V1.96527H5.76V0.787808C5.76 0.706857 5.697 0.640625 5.62 0.640625H4.64C4.563 0.640625 4.5 0.706857 4.5 0.787808V1.96527H1.56C1.25025 1.96527 1 2.22836 1 2.554V14.7702C1 15.0958 1.25025 15.3589 1.56 15.3589H14.44C14.7498 15.3589 15 15.0958 15 14.7702L15 2.554ZM13.74 14.0343V7.04309H2.26V14.0343H13.74Z" fill="grey"/>
<path d="M10.5033 8.98337C10.7852 8.70151 10.7849 8.24485 10.5034 7.9634C10.222 7.68194 9.76533 7.68168 9.48347 7.96354L8.00009 9.44691L6.51649 7.9633C6.23504 7.68185 5.77838 7.68158 5.49652 7.96344C5.21466 8.2453 5.21493 8.70196 5.49638 8.98341L6.97999 10.467L5.55383 11.8932C5.27197 12.175 5.27223 12.6317 5.55369 12.9131C5.83514 13.1946 6.2918 13.1949 6.57366 12.913L7.99982 11.4868L9.42629 12.9133C9.70774 13.1948 10.1644 13.195 10.4463 12.9132C10.7281 12.6313 10.7279 12.1747 10.4464 11.8932L9.01993 10.4667L10.5033 8.98337Z" fill="grey"/>
</svg>
