<svg width="96" height="96" viewBox="0 0 96 96" fill="none" xmlns="http://www.w3.org/2000/svg">
<path fill-rule="evenodd" clip-rule="evenodd" d="M55.5324 58.5777C54.9548 58.0721 54.2784 57.666 53.5565 57.666H42.3639C41.6701 57.666 41.0196 58.0597 40.4617 58.5419C39.8996 59.0277 39.3985 59.633 39.006 60.1071L37.974 61.3537C37.3559 62.1004 37.331 63.2426 37.6656 64.1731C37.9993 65.1011 38.7312 65.9201 39.73 65.9201H56.113C57.0918 65.9201 57.8172 65.1217 58.1588 64.2119C58.5015 63.2995 58.4994 62.1759 57.9239 61.4228L57.0195 60.2391C56.6261 59.7243 56.1142 59.087 55.5324 58.5777ZM54.3888 59.8842C54.8316 60.2718 55.2557 60.7906 55.6398 61.2934L56.5443 62.477C56.583 62.5276 56.6386 62.659 56.6527 62.865C56.6664 63.0646 56.6396 63.3186 56.5334 63.6014C56.3524 64.0835 56.1444 64.1666 56.1087 64.1808L56.1046 64.1825L56.1034 64.1834L56.1048 64.1837L56.107 64.1838H39.7313L39.7354 64.1836L39.7371 64.1834L39.7354 64.1826L39.7321 64.1812C39.6966 64.1678 39.4795 64.0861 39.2994 63.5855C39.1957 63.2971 39.174 63.0416 39.1925 62.8428C39.2116 62.6376 39.2715 62.5092 39.3115 62.4609L40.3435 61.2142C40.7505 60.7225 41.1625 60.2311 41.5971 59.8555C42.0633 59.4526 42.3096 59.4023 42.3639 59.4023H53.5565C53.641 59.4023 53.9136 59.4683 54.3888 59.8842Z" fill="#202021"/>
<path fill-rule="evenodd" clip-rule="evenodd" d="M38.9 75.0061H34.2C33.1 75.0061 32.2 74.1061 32.2 73.0061C32.2 71.9061 33.1 71.0061 34.2 71.0061H38.9C40 71.0061 40.9 71.9061 40.9 73.0061C40.9 74.1061 40 75.0061 38.9 75.0061ZM39.3 73.0062C39.3 72.8063 39.1 72.6062 38.9 72.6062H34.2C34 72.6062 33.8 72.8063 33.8 73.0062C33.8 73.2063 34 73.4062 34.2 73.4062H38.9C39.1 73.4062 39.3 73.2063 39.3 73.0062Z" fill="#202021"/>
<path fill-rule="evenodd" clip-rule="evenodd" d="M57.1 75.0061H61.7999C62.7999 75.0061 63.7999 74.1061 63.7999 73.0061C63.7999 71.9061 62.8999 71.0061 61.7999 71.0061H57.1C56 71.0061 55.1 71.9061 55.1 73.0061C55.1 74.1061 56 75.0061 57.1 75.0061ZM61.7 72.6062C61.9 72.6062 62.1 72.8063 62.1 73.0062C62.1 73.2063 62 73.4062 61.7 73.4062H57C56.8 73.4062 56.6 73.2063 56.6 73.0062C56.6 72.8063 56.8 72.6062 57 72.6062H61.7Z" fill="#202021"/>
<path fill-rule="evenodd" clip-rule="evenodd" d="M16.6279 89.8504H80.4279C81.0279 89.8504 81.4279 89.3504 81.4279 88.7504V53.1504H93.2279C93.6279 53.1504 93.9279 52.9504 94.1279 52.5504C94.3279 52.1504 94.2279 51.7504 93.9279 51.4504L48.9279 6.45039C48.5279 6.05039 47.9279 6.05039 47.5279 6.45039L35.9279 17.9504V9.25039C35.9279 8.65039 35.5279 8.25039 34.9279 8.25039H21.7279C21.1279 8.25039 20.7279 8.65039 20.7279 9.25039V32.8504L2.02787 51.5504C1.72787 51.7504 1.72787 52.2504 1.82787 52.6504C1.92787 53.0504 2.32787 53.2504 2.72787 53.2504H15.6279V88.8504C15.6279 89.4504 16.0279 89.8504 16.6279 89.8504ZM22.1489 87.8504H17.6279V52.2504C17.6279 51.6504 17.2279 51.2504 16.6279 51.2504H5.12787L22.4279 33.8504C22.6279 33.6504 22.7279 33.4504 22.7279 33.1504V10.2504H34.0279V20.3504C34.0279 20.7504 34.2279 21.0504 34.6279 21.2504C35.0279 21.4504 35.4279 21.3504 35.7279 21.0504L48.2279 8.55039L90.8279 51.2504H80.4279C79.8279 51.2504 79.4279 51.6504 79.4279 52.2504V87.8504H73.8508V54.4258C73.8508 51.8427 71.434 50.4258 69.3804 50.4258H26.6193C24.5658 50.4258 22.1489 51.8427 22.1489 54.4258V87.8504ZM29.8994 87.8504C28.4269 87.0978 27.4 85.573 27.4 83.7549V73.4549C27.4 72.8549 27.5 72.3549 27.8 71.8549L29.4 68.7549C27.9 68.4549 26.7 67.1549 26.7 65.5549C26.7 63.7549 28.2 62.2549 30 62.2549H32.2999C33.1 62.2549 33.7999 61.9549 34.2 61.3549L37.6 57.1549C38.2999 56.2549 39.2999 55.7549 40.4 55.7549H55.3999C56.5 55.7549 57.5999 56.2549 58.2999 57.1549L61.5999 61.2549C62.0999 61.8549 62.7999 62.2549 63.5999 62.2549H66C67.7999 62.2549 69.2999 63.7549 69.2999 65.5549C69.2999 67.1549 68.0999 68.5549 66.5999 68.7549L66.9826 69.6295L68 71.8551C68.2 72.2551 68.3 72.7551 68.3 73.2551L68.2999 84.1549C68.2999 85.7408 67.3965 87.1366 66.0815 87.8504H62.1223C60.9558 87.2179 60.0987 86.0461 59.9 84.6549H36.5C36.235 86.0461 35.3116 87.2179 34.0788 87.8504H29.8994Z" fill="#202021"/>
</svg>
